<svg width="2314" height="284" viewBox="0 0 2314 284" fill="none" xmlns="http://www.w3.org/2000/svg">
<path d="M66.3154 5.76228C24.0993 19.732 9.47805 59.9998 31.3271 89.5603C53.1762 119.121 83.3794 106.436 118.723 93.5833C120.893 99.4467 124.067 106.698 125.792 112.695C103.301 120.406 90.4482 123.761 65.899 132.854C-42.929 173.167 -2.08912 302.91 87.2351 278.34C109.727 229.011 140.894 150.244 156.948 109.952C167.346 84.0348 175.833 51.2498 162.401 32.2002C139.656 -0.0564102 101.496 -5.87916 66.3154 5.76228Z" fill="#DC6C1A"/>
<path d="M251.936 278.456C294.152 264.486 308.773 224.218 286.924 194.658C265.075 165.097 234.872 177.782 199.528 190.635C197.358 184.771 194.184 177.52 192.459 171.523C214.95 163.812 227.803 160.457 252.352 151.364C361.18 111.051 320.34 -18.6922 231.016 5.87768C208.524 55.2074 177.357 133.974 161.303 174.266C150.904 200.183 142.418 232.968 155.85 252.018C178.595 284.274 216.755 290.097 251.936 278.456Z" fill="#DC6C1A"/>
<path d="M488.83 43.5728H457.898V183.956C457.898 235.351 500.727 231.544 524.521 231.544V202.991H500.727C488.83 202.991 488.83 190.301 488.83 183.956V43.5728Z" fill="#2D2D2D"/>
<path d="M1654.73 45.9517H1623.79V186.335C1623.79 237.73 1666.62 233.923 1690.42 233.923V205.37H1666.62C1654.73 205.37 1654.73 192.68 1654.73 186.335V45.9517Z" fill="#2D2D2D"/>
<path d="M2278.13 45.9517H2247.19V186.335C2247.19 237.73 2290.02 233.923 2313.82 233.923V205.37H2290.02C2278.13 205.37 2278.13 192.68 2278.13 186.335V45.9517Z" fill="#2D2D2D"/>
<path fill-rule="evenodd" clip-rule="evenodd" d="M572.109 176.818H688.699C690.285 149.058 677.277 93.5395 612.558 93.5395C588.764 91.9533 541.177 105.912 541.177 174.439C542.763 195.06 559.26 236.302 612.558 236.302C630.8 237.095 670.615 229.164 683.94 191.094H653.008C645.87 202.991 629.214 210.129 612.558 210.129C593.523 210.129 572.109 195.853 572.109 176.818ZM572.108 153.024H657.766C655.386 141.92 643.489 119.713 614.937 119.713C586.384 119.713 574.487 141.92 572.108 153.024Z" fill="#2D2D2D"/>
<path fill-rule="evenodd" clip-rule="evenodd" d="M1216.92 176.933H1333.51C1335.1 149.174 1322.09 93.655 1257.37 93.655C1233.58 92.0687 1185.99 106.028 1185.99 174.554C1187.58 195.175 1204.07 236.418 1257.37 236.418C1275.61 237.211 1315.43 229.279 1328.75 191.209H1297.82C1290.68 203.106 1274.03 210.244 1257.37 210.244C1238.34 210.244 1216.92 195.969 1216.92 176.933ZM1216.92 153.141H1302.58C1300.2 142.037 1288.3 119.829 1259.75 119.829C1231.2 119.829 1219.3 142.037 1216.92 153.141Z" fill="#2D2D2D"/>
<path fill-rule="evenodd" clip-rule="evenodd" d="M724.389 141.126H755.321C757.7 133.988 767.693 119.711 788.632 119.711C814.805 119.711 821.943 129.229 821.943 138.746C821.943 148.264 810.046 153.023 788.632 153.023C767.218 153.023 719.63 155.402 719.63 198.231C719.63 241.06 795.77 252.957 821.943 198.231L833.84 202.99C832.254 212.507 833.84 231.542 852.875 231.542H871.91V205.369C865.565 206.162 852.875 205.369 852.875 195.852V145.885C852.875 128.436 840.027 93.5381 788.632 93.5381C737.237 93.5381 724.389 125.263 724.389 141.126ZM814.806 160.162L824.323 167.3C817.978 182.369 798.15 212.032 769.597 210.129C762.459 209.336 748.183 204.894 748.183 193.473C748.183 182.052 759.287 179.197 764.839 179.197C778.322 179.197 807.192 175.39 814.806 160.162Z" fill="#2D2D2D"/>
<path fill-rule="evenodd" clip-rule="evenodd" d="M2066.36 141.126H2097.29C2099.67 133.988 2109.67 119.712 2130.6 119.712C2156.78 119.712 2163.92 129.229 2163.92 138.747C2163.92 148.264 2152.02 153.023 2130.6 153.023C2109.19 153.023 2061.6 155.402 2061.6 198.231C2061.6 241.06 2137.74 252.957 2163.92 198.231L2175.81 202.99C2174.23 212.507 2175.81 231.543 2194.85 231.543H2213.88V205.369C2207.54 206.162 2194.85 205.369 2194.85 195.852V145.885C2194.85 128.436 2182 93.5383 2130.6 93.5383C2079.21 93.5383 2066.36 125.263 2066.36 141.126ZM2156.78 160.162L2166.29 167.3C2159.95 182.37 2140.12 212.033 2111.57 210.129C2104.43 209.336 2090.15 204.894 2090.15 193.473C2090.15 182.052 2101.26 179.197 2106.81 179.197C2120.29 179.197 2149.16 175.39 2156.78 160.162Z" fill="#2D2D2D"/>
<path d="M907.606 231.544L905.227 95.919L938.538 95.9189C938.538 105.436 933.779 120.506 931.4 126.851L943.297 131.61C945.2 99.2502 978.987 94.3328 995.643 95.919V126.851C946.152 121.14 938.538 153.024 938.538 174.439V231.544H907.606Z" fill="#2D2D2D"/>
<path d="M1024.19 231.543V95.9182H1055.12C1055.12 103.532 1050.36 118.126 1047.99 124.471L1057.5 129.23C1061.31 106.388 1082.88 97.5045 1093.19 95.9182C1146.49 88.3042 1156.64 140.333 1155.06 167.3V231.543H1121.75V167.3C1123.33 153.023 1119.37 123.995 1090.81 122.091C1062.26 120.188 1055.12 151.437 1055.12 167.3V231.543H1024.19Z" fill="#2D2D2D"/>
<path fill-rule="evenodd" clip-rule="evenodd" d="M1483.41 133.989C1478.65 112.575 1445.82 77.8358 1400.13 100.678C1354.45 123.52 1362.06 175.232 1371.58 198.233C1383.4 226.785 1442.96 260.097 1483.41 198.233L1492.93 202.991C1489.76 210.13 1483.41 225.834 1483.41 231.544H1514.34V43.5728H1483.41C1481.83 64.1941 1481.51 109.72 1492.93 126.851L1483.41 133.989ZM1438.21 207.75C1461.86 207.75 1481.03 188.575 1481.03 164.921C1481.03 141.267 1461.86 122.092 1438.21 122.092C1411.16 122.092 1395.38 141.267 1395.38 164.921C1395.38 188.575 1411.16 207.75 1438.21 207.75Z" fill="#2D2D2D"/>
<path fill-rule="evenodd" clip-rule="evenodd" d="M1780.84 236.342C1823.67 236.342 1856.98 205.448 1856.98 167.339C1856.98 124.47 1828.43 93.5383 1780.84 93.5383C1742.73 93.5383 1704.7 117.332 1704.7 167.339C1704.7 205.448 1740.39 236.342 1780.84 236.342ZM1780.84 207.75C1806.27 207.75 1826.05 189.219 1826.05 166.36C1826.05 140.646 1809.09 122.092 1780.84 122.092C1758.21 122.092 1738.01 136.364 1738.01 166.36C1738.01 189.219 1756.82 207.75 1780.84 207.75Z" fill="#2D2D2D"/>
<path d="M2030.67 148.264H1999.74C1994.98 131.608 1983.08 122.091 1956.91 122.091C1930.74 122.091 1916.46 143.505 1916.46 164.92C1916.46 186.334 1930.74 207.749 1959.29 207.749C1982.13 207.749 1997.36 190.3 2002.12 181.575H2030.67C2027.5 199.817 2008.31 236.301 1956.91 236.301C1892.67 236.301 1885.53 181.575 1885.53 164.92C1885.53 148.264 1892.49 93.5382 1956.91 93.5383C2009.26 93.5384 2027.5 128.436 2030.67 148.264Z" fill="#2D2D2D"/>
</svg>
