<svg width="318" height="284" viewBox="0 0 318 284" fill="none" xmlns="http://www.w3.org/2000/svg">
<path d="M66.3154 5.76228C24.0993 19.732 9.47805 59.9998 31.3271 89.5603C53.1762 119.121 83.3794 106.436 118.723 93.5833C120.893 99.4467 124.067 106.698 125.792 112.695C103.301 120.406 90.4482 123.761 65.899 132.854C-42.929 173.167 -2.08912 302.91 87.2351 278.34C109.727 229.011 140.894 150.244 156.948 109.952C167.346 84.0348 175.833 51.2498 162.401 32.2002C139.656 -0.0564102 101.496 -5.87916 66.3154 5.76228Z" fill="#DC6C1A"/>
<path d="M251.936 278.456C294.152 264.486 308.773 224.218 286.924 194.658C265.075 165.097 234.872 177.782 199.528 190.635C197.358 184.771 194.184 177.52 192.459 171.523C214.95 163.812 227.803 160.457 252.352 151.364C361.18 111.051 320.34 -18.6922 231.016 5.87768C208.524 55.2074 177.357 133.974 161.303 174.266C150.904 200.183 142.418 232.968 155.85 252.018C178.595 284.274 216.755 290.097 251.936 278.456Z" fill="#DC6C1A"/>
</svg>
